<svg width="70" height="70" viewBox="0 0 70 70" fill="none" xmlns="http://www.w3.org/2000/svg">
<g clip-path="url(#clip0_698_260)">
<path d="M59.7421 0.0439453H10.2585C4.63522 0.0439453 0.0766602 4.60672 0.0766602 10.2352V59.7646C0.0766602 65.3931 4.63522 69.9559 10.2585 69.9559H59.7421C65.3654 69.9559 69.9239 65.3931 69.9239 59.7646V10.2352C69.9239 4.60672 65.3654 0.0439453 59.7421 0.0439453Z" fill="#525967"/>
<path d="M59.7421 3.10132C61.6324 3.10132 63.4452 3.85292 64.7819 5.19078C66.1185 6.52864 66.8694 8.34317 66.8694 10.2352V59.7646C66.8694 61.6567 66.1185 63.4712 64.7819 64.8091C63.4452 66.1469 61.6324 66.8985 59.7421 66.8985H10.2585C8.36821 66.8985 6.55536 66.1469 5.21874 64.8091C3.88211 63.4712 3.13121 61.6567 3.13121 59.7646V10.2352C3.13121 8.34317 3.88211 6.52864 5.21874 5.19078C6.55536 3.85292 8.36821 3.10132 10.2585 3.10132H59.7421ZM59.7421 0.0439453H10.2585C7.55809 0.0439453 4.96831 1.11766 3.05885 3.02889C1.14938 4.94012 0.0766602 7.5323 0.0766602 10.2352V59.7646C0.0766602 62.4675 1.14938 65.0597 3.05885 66.9709C4.96831 68.8822 7.55809 69.9559 10.2585 69.9559H59.7421C62.4425 69.9559 65.0323 68.8822 66.9417 66.9709C68.8512 65.0597 69.9239 62.4675 69.9239 59.7646V10.2352C69.9239 7.5323 68.8512 4.94012 66.9417 3.02889C65.0323 1.11766 62.4425 0.0439453 59.7421 0.0439453Z" fill="#454B57"/>
<path d="M26.2948 61.1404C27.438 61.1404 28.57 60.915 29.6262 60.4771C30.6824 60.0392 31.6421 59.3974 32.4505 58.5883C33.2589 57.7792 33.9001 56.8186 34.3376 55.7614C34.7751 54.7042 35.0003 53.5712 35.0003 52.4269V43.7134H26.2948C25.1516 43.7134 24.0196 43.9388 22.9634 44.3767C21.9072 44.8146 20.9475 45.4564 20.1391 46.2655C19.3307 47.0746 18.6895 48.0352 18.252 49.0924C17.8145 50.1495 17.5894 51.2826 17.5894 52.4269C17.5894 53.5712 17.8145 54.7042 18.252 55.7614C18.6895 56.8186 19.3307 57.7792 20.1391 58.5883C20.9475 59.3974 21.9072 60.0392 22.9634 60.4771C24.0196 60.915 25.1516 61.1404 26.2948 61.1404Z" fill="#0ACF83"/>
<path d="M17.5894 35.0001C17.5894 32.6892 18.5065 30.4729 20.1391 28.8388C21.7717 27.2047 23.986 26.2866 26.2948 26.2866H35.0003V43.7137H26.2948C23.986 43.7137 21.7717 42.7956 20.1391 41.1615C18.5065 39.5274 17.5894 37.3111 17.5894 35.0001Z" fill="#A259FF"/>
<path d="M17.5894 17.5729C17.5894 15.2619 18.5065 13.0456 20.1391 11.4115C21.7717 9.7774 23.986 8.85938 26.2948 8.85938H35.0003V26.2864H26.2948C23.986 26.2864 21.7717 25.3684 20.1391 23.7343C18.5065 22.1002 17.5894 19.8839 17.5894 17.5729Z" fill="#F24E1E"/>
<path d="M35.0005 8.91016H43.7059C46.0148 8.91016 48.229 9.82818 49.8616 11.4623C51.4942 13.0964 52.4114 15.3127 52.4114 17.6237C52.4114 19.9346 51.4942 22.151 49.8616 23.7851C48.229 25.4192 46.0148 26.3372 43.7059 26.3372H35.0005V8.91016Z" fill="#FF7262"/>
<path d="M52.4114 35.0001C52.4114 36.7235 51.9008 38.4082 50.9443 39.8411C49.9877 41.274 48.6281 42.3909 47.0374 43.0504C45.4467 43.7099 43.6963 43.8824 42.0076 43.5462C40.3189 43.21 38.7677 42.3801 37.5503 41.1615C36.3328 39.9429 35.5037 38.3903 35.1678 36.7001C34.8319 35.0098 35.0043 33.2578 35.6632 31.6656C36.3221 30.0734 37.4378 28.7126 38.8695 27.7551C40.3011 26.7977 41.9842 26.2866 43.7059 26.2866C46.0148 26.2866 48.229 27.2047 49.8616 28.8388C51.4942 30.4729 52.4114 32.6892 52.4114 35.0001Z" fill="#1ABCFE"/>
</g>
<defs>
<clipPath id="clip0_698_260">
<rect width="70" height="70" fill="white"/>
</clipPath>
</defs>
</svg>
