<svg width="70" height="70" viewBox="0 0 70 70" fill="none" xmlns="http://www.w3.org/2000/svg">
<g clip-path="url(#clip0_698_334)">
<path d="M69.9795 0H0.0205078C0.00918166 0 0 0.00918166 0 0.0205078V69.9795C0 69.9908 0.00918166 70 0.0205078 70H69.9795C69.9908 70 70 69.9908 70 69.9795V0.0205078C70 0.00918166 69.9908 0 69.9795 0Z" fill="#777BB3"/>
<path d="M21.1914 27.6174H13.2617C13.173 27.6123 13.085 27.6363 13.011 27.6856C12.937 27.7349 12.8811 27.8069 12.8516 27.8908L9.16016 47.1681C9.16016 47.5783 9.57031 47.5783 9.57031 47.5783H13.6719C14.082 47.5783 14.082 47.3049 14.082 47.3049L15.0391 42.5197H18.7305C24.4727 42.5197 27.3438 38.6916 28.0273 35.2736C28.7109 31.8556 28.1641 27.6174 21.1914 27.6174ZM22.9688 35.0002C22.4219 37.5978 20.6445 38.6916 18.1836 38.6916H15.7227L17.2266 31.4455H19.6875C23.3789 31.4455 23.2422 32.8127 22.9688 35.0002Z" fill="#343434"/>
<path d="M37.5977 42.5195C37.0508 42.5195 37.1875 41.9727 37.1875 41.9727L38.8281 33.6328C38.8281 32.5391 39.6484 31.4453 36.3672 31.582H33.9062L31.8555 42.2461C31.8555 42.2461 31.8555 42.6562 31.3086 42.6562H27.3438C26.9336 42.6562 26.9336 42.2461 26.9336 42.2461L30.7617 22.9688C30.7617 22.9688 30.7617 22.6953 31.3086 22.6953H35.4102C35.8203 22.6953 35.6836 23.1055 35.6836 23.1055L34.7266 27.7539H38.2812C43.2031 27.7539 44.4336 30.0781 44.0234 32.8125L42.2461 42.2461C42.2461 42.2461 42.2461 42.6562 41.5625 42.6562L37.5977 42.5195Z" fill="#343434"/>
<path d="M53.8672 27.6174H45.9375C45.8487 27.6123 45.7607 27.6363 45.6868 27.6856C45.6128 27.7349 45.5568 27.8069 45.5273 27.8908L41.8359 47.1681C41.8359 47.5783 42.2461 47.5783 42.2461 47.5783H46.3477C46.7578 47.5783 46.7578 47.3049 46.7578 47.3049L47.7148 42.5197H51.4062C57.1484 42.5197 60.0195 38.6916 60.7031 35.2736C61.3867 31.8556 60.8398 27.6174 53.8672 27.6174ZM55.6445 35.0002C55.0977 37.5978 53.3203 38.6916 50.8594 38.6916H48.3984L49.9023 31.4455H52.3633C56.0547 31.4455 55.918 32.8127 55.6445 35.0002Z" fill="#343434"/>
</g>
<defs>
<clipPath id="clip0_698_334">
<rect width="70" height="70" fill="white"/>
</clipPath>
</defs>
</svg>
