<svg width="10" height="9" viewBox="0 0 10 9" fill="none" xmlns="http://www.w3.org/2000/svg">
<path d="M1.152 9C0.992 9 0.876 8.964 0.804 8.892C0.74 8.82 0.708 8.712 0.708 8.568V1.284C0.708 1.132 0.74 1.02 0.804 0.948C0.876 0.876 0.992 0.84 1.152 0.84H3.552C4.904 0.84 5.936 1.164 6.648 1.812C7.368 2.46 7.728 3.496 7.728 4.92C7.728 7.64 6.336 9 3.552 9H1.152ZM3.648 7.836C4.496 7.836 5.132 7.616 5.556 7.176C5.988 6.736 6.204 5.984 6.204 4.92C6.204 3.856 5.988 3.108 5.556 2.676C5.132 2.236 4.496 2.016 3.648 2.016H2.244V7.836H3.648ZM9.16341 9C9.01941 9 8.89941 8.948 8.80341 8.844C8.70741 8.74 8.65941 8.616 8.65941 8.472V8.256C8.65941 8.104 8.70741 7.976 8.80341 7.872C8.89941 7.768 9.01941 7.716 9.16341 7.716H9.39141C9.53541 7.716 9.65541 7.768 9.75141 7.872C9.84741 7.976 9.89541 8.104 9.89541 8.256V8.472C9.89541 8.616 9.84741 8.74 9.75141 8.844C9.65541 8.948 9.53541 9 9.39141 9H9.16341Z" fill="white"/>
</svg>
